<?xml version="1.0" standalone="no"?>
<!DOCTYPE svg PUBLIC "-//W3C//DTD SVG 20010904//EN"
 "http://www.w3.org/TR/2001/REC-SVG-20010904/DTD/svg10.dtd">
<svg version="1.0" xmlns="http://www.w3.org/2000/svg"
 width="1920.000000pt" height="1920.000000pt" viewBox="0 0 1920.000000 1920.000000"
 preserveAspectRatio="xMidYMid meet">

<g transform="translate(0.000000,1920.000000) scale(0.100000,-0.100000)"
fill="#000000" stroke="none">
<path d="M9895 16179 c-1156 -107 -2157 -659 -2768 -1526 -90 -128 -162 -179
-285 -203 -78 -16 -163 -5 -372 45 -345 83 -603 93 -905 34 -858 -165 -1548
-965 -1665 -1929 -33 -277 7 -637 99 -886 272 -737 968 -1179 1994 -1263 361
-30 635 -9 1257 99 600 104 875 133 1410 148 l245 8 -126 41 c-143 47 -259 74
-434 100 -99 15 -180 18 -460 17 -315 0 -369 -3 -730 -38 -780 -76 -1192 -59
-1567 66 -294 97 -537 244 -728 437 -218 221 -340 470 -390 796 -16 100 -13
342 4 465 67 472 309 939 662 1280 427 412 926 547 1364 367 249 -102 281
-152 370 -582 23 -110 57 -246 76 -302 81 -249 201 -415 389 -539 72 -47 195
-109 195 -99 0 3 -21 36 -46 75 -235 364 -289 757 -158 1156 235 718 1115
1402 2130 1657 290 73 558 107 848 107 966 0 1709 -434 2114 -1237 65 -130
122 -260 122 -281 0 -5 -62 -12 -137 -15 -338 -16 -675 -90 -1238 -272 -654
-211 -949 -282 -1365 -331 -342 -40 -965 -25 -1300 32 -59 10 -23 -10 115 -64
329 -127 618 -203 950 -249 181 -24 672 -25 860 0 310 41 555 97 1114 256 750
214 974 232 1426 120 873 -218 1476 -616 1754 -1159 193 -378 219 -797 75
-1213 -187 -536 -624 -969 -1154 -1140 -179 -58 -180 -65 7 120 242 240 360
395 473 618 151 298 185 584 109 896 -12 49 -25 89 -29 89 -4 0 -13 -33 -20
-72 -23 -134 -91 -392 -137 -518 -74 -204 -164 -371 -262 -484 -114 -132 -351
-329 -541 -450 -112 -71 -398 -209 -543 -261 -417 -149 -914 -225 -1474 -225
-119 0 -214 -2 -212 -5 7 -7 364 -71 524 -94 249 -36 514 -60 780 -71 142 -6
260 -12 262 -14 1 -1 -3 -130 -9 -287 -17 -413 6 -1057 57 -1629 7 -85 12
-156 11 -157 -1 -1 -83 22 -181 53 -1049 320 -2008 462 -2880 425 -835 -35
-1591 -204 -2368 -528 -59 -25 -110 -43 -113 -41 -2 3 -11 122 -19 264 -48
845 -142 1373 -327 1839 -83 209 -218 437 -331 560 l-56 60 35 -110 c61 -193
105 -447 136 -785 16 -180 16 -973 0 -1245 -19 -315 -47 -660 -93 -1153 -23
-243 -40 -444 -38 -446 2 -2 83 12 179 31 782 153 1625 264 2400 315 264 18
1369 17 1620 0 724 -50 1361 -132 2010 -256 69 -13 126 -23 128 -21 1 1 -71
36 -160 78 -890 414 -1647 607 -2698 687 -324 24 -953 47 -1425 51 -156 1
-156 1 75 48 324 66 690 111 1075 132 266 15 960 6 1220 -15 706 -58 1393
-170 2104 -342 101 -24 186 -42 189 -40 2 3 -3 45 -11 93 -106 594 -120 1369
-41 2268 9 99 18 183 20 186 2 3 45 12 96 18 819 110 1463 463 1822 1001 514
770 364 1872 -358 2618 -352 364 -756 595 -1275 732 l-134 35 -37 115 c-96
300 -239 570 -438 830 -100 131 -358 381 -499 485 -446 327 -951 524 -1554
605 -177 24 -645 35 -814 19z"/>
<path d="M8611 5509 c-114 -24 -261 -77 -358 -130 -39 -21 -148 -90 -241 -152
-463 -312 -830 -465 -1162 -486 l-115 -7 48 -22 c68 -31 202 -70 310 -91 l92
-18 -99 -31 c-129 -41 -303 -80 -436 -98 -125 -16 -402 -18 -503 -3 -312 47
-530 175 -620 366 -31 66 -32 73 -31 193 0 116 2 131 33 212 18 49 58 127 88
175 30 49 57 91 60 96 7 12 -104 -40 -171 -80 -230 -137 -368 -327 -422 -576
-20 -95 -20 -305 1 -420 50 -283 214 -617 427 -872 267 -321 568 -482 1006
-540 131 -17 432 -20 583 -5 840 84 1790 505 2357 1045 l93 88 17 -24 c42 -60
141 -166 216 -232 488 -426 1300 -725 2173 -798 206 -17 630 -7 799 19 421 66
701 185 918 392 230 220 387 515 442 830 22 130 15 352 -16 465 -78 290 -273
514 -579 666 -53 26 -97 46 -99 44 -2 -2 17 -28 41 -59 140 -171 210 -376 177
-517 -36 -153 -137 -268 -315 -357 -314 -157 -849 -161 -1315 -9 l-95 31 91
17 c103 19 344 97 344 110 0 5 -33 9 -74 9 -315 0 -720 168 -1221 506 -298
201 -526 284 -779 284 -97 0 -228 -19 -311 -46 -122 -40 -285 -124 -377 -196
l-37 -28 -81 55 c-275 187 -571 254 -859 194z"/>
</g>
</svg>
